<?xml version="1.0" encoding="utf-8"?>
<!-- Generator: Adobe Illustrator 19.0.0, SVG Export Plug-In . SVG Version: 6.00 Build 0)  -->
<svg version="1.1" id="Layer_1" xmlns="http://www.w3.org/2000/svg" xmlns:xlink="http://www.w3.org/1999/xlink" x="0px" y="0px"
	 viewBox="0 0 50 50" style="enable-background:new 0 0 50 50;" xml:space="preserve">
<g id="XMLID_3_">
	<path id="XMLID_4_" d="M4,44.9V5.5h14.2c3.1,0,5.8,1,8,3.1c2.2,2,3.4,4.6,3.4,7.6c0,3.9-1.8,6.6-5.3,8.2v0.2c2,0.7,3.6,1.8,4.8,3.4
		c1.2,1.6,1.8,3.5,1.8,5.6c0,3.2-1.2,5.9-3.5,8c-2.3,2.1-5.1,3.2-8.4,3.2H4z M9.1,10.3v12h9.2c1.8,0,3.3-0.6,4.5-1.8
		c1.2-1.2,1.8-2.7,1.8-4.2c0-1.5-0.6-2.9-1.8-4.2c-1.2-1.2-2.6-1.8-4.3-1.8H9.1z M9.1,27.1V40h10.2c1.8,0,3.4-0.6,4.7-1.9
		c1.2-1.3,1.9-2.8,1.9-4.6c0-1.7-0.6-3.2-1.9-4.5c-1.3-1.3-2.9-1.9-4.8-1.9H9.1z"/>
</g>
<g id="XMLID_1_">
	<path id="XMLID_8_" d="M32.9,45.8c-5.8,0-10.7-2-14.6-5.9c-3.9-3.9-5.8-8.8-5.8-14.7c0-5.9,1.9-10.7,5.8-14.6
		c3.9-4,8.8-5.9,14.6-5.9c5.9,0,10.8,2.1,14.5,6.4l-3.6,3.5c-2.8-3.4-6.4-5.1-10.8-5.1c-4.4,0-8,1.5-10.9,4.4
		c-2.9,2.9-4.3,6.7-4.3,11.3c0,4.7,1.4,8.4,4.3,11.3c2.9,2.9,6.6,4.4,10.9,4.4c4.6,0,8.6-1.9,11.9-5.8l3.7,3.6
		c-1.9,2.2-4.2,4-6.9,5.2C38.9,45.1,36,45.8,32.9,45.8z"/>
</g>
</svg>
