<?xml version="1.0" encoding="utf-8"?>
<!-- Generator: Adobe Illustrator 19.0.0, SVG Export Plug-In . SVG Version: 6.00 Build 0)  -->
<svg version="1.1" id="Layer_1" xmlns="http://www.w3.org/2000/svg" xmlns:xlink="http://www.w3.org/1999/xlink" x="0px" y="0px"
	 viewBox="-12 271 894 180" style="enable-background:new -12 271 894 180;" xml:space="preserve">
<style type="text/css">
	.st0{fill:url(#XMLID_5_);}
	.st1{fill:#FFFFFF;}
</style>
<linearGradient id="XMLID_5_" gradientUnits="userSpaceOnUse" x1="-12" y1="332.5" x2="882" y2="332.5" gradientTransform="matrix(1 0 0 -1 0 724)">
	<stop  offset="0" style="stop-color:#2B2978"/>
	<stop  offset="1" style="stop-color:#982270"/>
</linearGradient>
<rect id="XMLID_1_" x="-12" y="271" class="st0" width="894" height="241"/>
<g id="XMLID_3_">
	<path id="XMLID_4_" class="st1" d="M71.7,341.7v4.4H55.4v11.4h14.7v4.3H55.4v11.4h16.3v4.4H50.8v-35.9H71.7z"/>
	<path id="XMLID_6_" class="st1" d="M88,377.5h-4.6L73.5,353h5l7.2,19h0.1l7.3-19H98L88,377.5z"/>
	<path id="XMLID_8_" class="st1" d="M111.3,378.3c-3.6,0-6.6-1.2-8.9-3.7s-3.5-5.6-3.5-9.4c0-3.7,1.1-6.8,3.4-9.3s5.2-3.7,8.7-3.7
		c3.6,0,6.5,1.2,8.7,3.5c2.2,2.4,3.2,5.6,3.2,9.9v0.5h-19.3c0.1,2.4,0.9,4.3,2.4,5.8s3.4,2.2,5.5,2.2c2.9,0,5.2-1.5,6.9-4.4l4.1,2
		c-1.1,2.1-2.6,3.7-4.6,4.8C115.9,377.7,113.7,378.3,111.3,378.3z M103.9,362.3h14c-0.1-1.7-0.8-3.1-2.1-4.2c-1.3-1.1-2.9-1.7-5-1.7
		c-1.7,0-3.2,0.5-4.5,1.6C105.1,359,104.3,360.5,103.9,362.3z"/>
	<path id="XMLID_11_" class="st1" d="M127.1,353h4.4v3.4h0.2c0.7-1.2,1.8-2.2,3.2-3c1.5-0.8,3-1.2,4.5-1.2c3,0,5.3,0.9,6.9,2.6
		c1.6,1.7,2.4,4.2,2.4,7.3v15.4h-4.6v-15.1c-0.1-4-2.1-6-6-6c-1.8,0-3.4,0.7-4.6,2.2c-1.2,1.5-1.9,3.3-1.9,5.3v13.5H127V353H127.1z"
		/>
	<path id="XMLID_13_" class="st1" d="M162.6,377.9c-2,0-3.7-0.6-5-1.9c-1.3-1.2-2-2.9-2-5.1v-13.7h-4.3V353h4.3v-7.5h4.6v7.5h6v4.2
		h-6v12.2c0,1.6,0.3,2.7,0.9,3.3c0.6,0.6,1.4,0.9,2.2,0.9c0.4,0,0.7,0,1.1-0.1s0.7-0.2,1-0.3l1.5,4.1
		C165.6,377.7,164.2,377.9,162.6,377.9z"/>
	<path id="XMLID_15_" class="st1" d="M189.9,370.7c0,2.1-0.9,3.9-2.8,5.4c-1.9,1.5-4.2,2.2-7,2.2c-2.5,0-4.6-0.6-6.5-1.9
		s-3.2-3-4-5.1l4.1-1.8c0.6,1.5,1.5,2.6,2.6,3.4c1.2,0.8,2.4,1.2,3.8,1.2c1.5,0,2.7-0.3,3.7-1c1-0.6,1.5-1.4,1.5-2.3
		c0-1.6-1.2-2.7-3.6-3.5l-4.2-1c-4.8-1.2-7.1-3.5-7.1-6.9c0-2.2,0.9-4,2.7-5.4c1.8-1.4,4.1-2,7-2c2.2,0,4.1,0.5,5.9,1.5
		c1.8,1,3,2.4,3.7,4.1l-4.1,1.7c-0.5-1-1.2-1.8-2.3-2.4c-1-0.6-2.2-0.9-3.5-0.9c-1.2,0-2.3,0.3-3.2,0.9c-0.9,0.6-1.4,1.3-1.4,2.2
		c0,1.4,1.3,2.4,3.9,3l3.7,1C187.4,364.5,189.9,367,189.9,370.7z"/>
</g>
<g>
	<path class="st1" d="M72.6,446c-6.9,0-12.7-2.3-17.3-7c-4.6-4.6-6.9-10.4-6.9-17.4s2.3-12.7,6.9-17.3c4.6-4.7,10.4-7,17.3-7
		c7,0,12.7,2.5,17.1,7.6l-4.3,4.2c-3.3-4-7.6-6-12.8-6c-5.2,0-9.5,1.7-12.9,5.2c-3.4,3.4-5.1,7.9-5.1,13.4s1.7,10,5.1,13.4
		c3.5,3.5,7.8,5.2,12.9,5.2c5.4,0,10.1-2.3,14.1-6.8l4.4,4.2c-2.2,2.6-4.9,4.7-8.1,6.1C79.7,445.3,76.3,446,72.6,446z"/>
	<path class="st1" d="M93.9,429.1c0-4.9,1.5-8.9,4.6-12.2c3.1-3.2,7-4.8,11.8-4.8c4.7,0,8.6,1.6,11.7,4.8c3.1,3.2,4.7,7.3,4.7,12.2
		c0,4.9-1.6,9-4.7,12.2c-3.1,3.2-7,4.8-11.7,4.8c-4.7,0-8.6-1.6-11.8-4.8C95.4,438,93.9,434,93.9,429.1z M99.9,429.1
		c0,3.4,1,6.2,3,8.3c2,2.1,4.5,3.2,7.4,3.2c2.9,0,5.4-1.1,7.4-3.2c2-2.1,3-4.9,3-8.3c0-3.4-1-6.1-3-8.3c-2-2.2-4.5-3.3-7.4-3.3
		c-2.9,0-5.4,1.1-7.4,3.3C100.9,422.9,99.9,425.7,99.9,429.1z"/>
	<path class="st1" d="M159.7,445H154v-4.4h-0.3c-0.9,1.6-2.3,2.9-4.2,3.9c-1.9,1-3.8,1.6-5.9,1.6c-3.9,0-6.9-1.1-9-3.3
		c-2.1-2.2-3.2-5.4-3.2-9.5v-20h6v19.6c0.1,5.2,2.8,7.8,7.9,7.8c2.4,0,4.4-1,6-2.9c1.6-1.9,2.4-4.2,2.4-6.9v-17.6h6V445z"/>
	<path class="st1" d="M167,413.2h5.7v4.4h0.3c0.9-1.6,2.3-2.9,4.2-3.9s3.8-1.6,5.9-1.6c3.9,0,6.9,1.1,9,3.3c2.1,2.2,3.2,5.4,3.2,9.5
		v20h-6v-19.6c-0.1-5.2-2.8-7.8-7.9-7.8c-2.4,0-4.4,1-6,2.9c-1.6,1.9-2.4,4.2-2.4,6.9V445h-6V413.2z"/>
	<path class="st1" d="M213.2,445.5c-2.6,0-4.8-0.8-6.5-2.4c-1.7-1.6-2.6-3.8-2.6-6.7v-17.8h-5.6v-5.5h5.6v-9.8h6v9.8h7.8v5.5h-7.8
		v15.9c0,2.1,0.4,3.6,1.2,4.3c0.8,0.8,1.8,1.1,2.8,1.1c0.5,0,0.9-0.1,1.4-0.2c0.5-0.1,0.9-0.2,1.3-0.4l1.9,5.3
		C217.1,445.2,215.3,445.5,213.2,445.5z"/>
	<path class="st1" d="M236.6,446c-4.2,0-7.7-1.6-10.7-4.9c-2.9-3.3-4.4-7.3-4.4-12c0-4.7,1.5-8.7,4.4-12c3-3.3,6.6-4.9,10.7-4.9
		c2.3,0,4.5,0.5,6.4,1.5c1.9,1,3.4,2.3,4.5,4h0.3l-0.3-4.4v-14.7h6V445h-5.7v-4.4h-0.3c-1,1.6-2.5,3-4.5,4
		C241.1,445.5,239,446,236.6,446z M237.6,440.6c2.9,0,5.4-1.1,7.2-3.2c2-2.1,2.9-4.9,2.9-8.3c0-3.3-1-6.1-2.9-8.3
		c-1.9-2.2-4.3-3.3-7.2-3.3c-2.9,0-5.3,1.1-7.2,3.3c-2,2.2-2.9,4.9-2.9,8.3c0,3.4,1,6.1,2.9,8.3
		C232.3,439.5,234.7,440.6,237.6,440.6z"/>
	<path class="st1" d="M258.6,429.1c0-4.9,1.5-8.9,4.6-12.2c3.1-3.2,7-4.8,11.8-4.8c4.7,0,8.6,1.6,11.7,4.8c3.1,3.2,4.7,7.3,4.7,12.2
		c0,4.9-1.6,9-4.7,12.2c-3.1,3.2-7,4.8-11.7,4.8c-4.7,0-8.6-1.6-11.8-4.8C260.1,438,258.6,434,258.6,429.1z M264.6,429.1
		c0,3.4,1,6.2,3,8.3c2,2.1,4.5,3.2,7.4,3.2c2.9,0,5.4-1.1,7.4-3.2c2-2.1,3-4.9,3-8.3c0-3.4-1-6.1-3-8.3c-2-2.2-4.5-3.3-7.4-3.3
		c-2.9,0-5.4,1.1-7.4,3.3C265.6,422.9,264.6,425.7,264.6,429.1z"/>
	<path class="st1" d="M341.3,413.2L331,445h-6.1l-7.9-24.4l-7.9,24.4h-6l-10.3-31.8h6.2l7.1,24h0.1l7.9-24h6.2l7.9,24h0.1l7-24
		H341.3z"/>
	<path class="st1" d="M345.2,413.2h5.7v4.4h0.3c0.9-1.6,2.3-2.9,4.2-3.9s3.8-1.6,5.9-1.6c3.9,0,6.9,1.1,9,3.3
		c2.1,2.2,3.2,5.4,3.2,9.5v20h-6v-19.6c-0.1-5.2-2.8-7.8-7.9-7.8c-2.4,0-4.4,1-6,2.9c-1.6,1.9-2.4,4.2-2.4,6.9V445h-6V413.2z"/>
</g>
</svg>
